{"title":"OneLoveManchester Live 720p WEB 2CH H264","magnet":"magnet:?xt=urn:btih:1d4ea4d1ff6cfe65c35936f6ead5cf9875889cec&dn=OneLoveManchester+Live+720p+WEB+2CH+H264&tr=udp%3A%2F%2Ftracker.leechers-paradise.org%3A6969&tr=udp%3A%2F%2Fzer0day.ch%3A1337&tr=udp%3A%2F%2Fopen.demonii.com%3A1337&tr=udp%3A%2F%2Ftracker.coppersurfer.tk%3A6969&tr=udp%3A%2F%2Fexodus.desync.com%3A6969","uploader":"nayhtut","categoryP":"video","categoryS":"other","size":"3292440267","seeders":"12","leechers":"9","description":"Complete name     : OneLoveManchester.Live.720p.WEB.2CH.H264.mp4\r\nFormat                                   : MPEG-4\r\nFormat profile                           : Base Media / Version 2\r\nFile size                                : 3.07 GiB\r\nDuration                                 : 3h 23mn\r\nOverall bit rate mode                    : Variable\r\nOverall bit rate                         : 2 157 Kbps\r\n\r\n\r\nVideo\r\nID                                       : 1\r\nFormat                                   : AVC\r\nFormat/Info                              : Advanced Video Codec\r\nFormat profile                           : <a class=\"__cf_email__\" href=\"/cdn-cgi/l/email-protection\" data-cfemail=\"f8b5999196b8b4cbd6c9\">[email&#xA0;protected]</a><script data-cfhash=\"f9e31\" type=\"text/javascript\">/* <![CDATA[ */!function(t,e,r,n,c,a,p){try{t=document.currentScript||function(){for(t=document.getElementsByTagName('script'),e=t.length;e--;)if(t[e].getAttribute('data-cfhash'))return t[e]}();if(t&&(c=t.previousSibling)){p=t.parentNode;if(a=c.getAttribute('data-cfemail')){for(e='',r='0x'+a.substr(0,2)|0,n=2;a.length-n;n+=2)e+='%'+('0'+('0x'+a.substr(n,2)^r).toString(16)).slice(-2);p.replaceChild(document.createTextNode(decodeURIComponent(e)),c)}p.removeChild(t)}}catch(u){}}()/* ]]> */</script>\r\nFormat settings, CABAC                   : Yes\r\nFormat settings, ReFrames                : 3 frames\r\nCodec ID                                 : avc1\r\nCodec ID/Info                            : Advanced Video Coding\r\nDuration                                 : 3h 23mn\r\nBit rate mode                            : Variable\r\nBit rate                                 : 2 027 Kbps\r\nWidth                                    : 1 280 pixels\r\nHeight                                   : 720 pixels\r\nDisplay aspect ratio                     : 16:9\r\nFrame rate mode                          : Constant\r\nFrame rate                               : 30.000 fps\r\nColor space                              : YUV\r\nChroma subsampling                       : 4:2:0\r\nBit depth                                : 8 bits\r\nScan type                                : Progressive\r\nBits/(Pixel*Frame)                       : 0.073\r\nStream size                              : 2.88 GiB (94%)\r\n\r\n\r\nAudio\r\n\r\nID                                       : 2\r\nFormat                                   : AAC\r\nFormat/Info                              : Advanced Audio Codec\r\nFormat profile                           : LC\r\nDuration                                 : 3h 23mn\r\nBit rate mode                            : Variable\r\nBit rate                                 : 126 Kbps\r\nChannel(s)                               : 2 channels\r\nChannel positions                        : Front: L R\r\nSampling rate                            : 44.1 KHz\r\nCompression mode                         : Lossy\r\nDelay relative to video                  : -33ms\r\nStream size                              : 183 MiB (6%)","last_updated":"2017-06-05T12:03:47.807Z","parsed":{"xt":"urn:btih:1d4ea4d1ff6cfe65c35936f6ead5cf9875889cec","dn":"OneLoveManchester Live 720p WEB 2CH H264","tr":["udp://exodus.desync.com:6969","udp://open.demonii.com:1337","udp://tracker.coppersurfer.tk:6969","udp://tracker.leechers-paradise.org:6969","udp://zer0day.ch:1337"],"infoHash":"1d4ea4d1ff6cfe65c35936f6ead5cf9875889cec","infoHashBuffer":{"type":"Buffer","data":[29,78,164,209,255,108,254,101,195,89,54,246,234,213,207,152,117,136,156,236]},"name":"OneLoveManchester Live 720p WEB 2CH H264","announce":["udp://exodus.desync.com:6969","udp://open.demonii.com:1337","udp://tracker.coppersurfer.tk:6969","udp://tracker.leechers-paradise.org:6969","udp://zer0day.ch:1337"],"urlList":[]}}